<svg width="428" height="308" viewBox="1.4210854715202004e-14 2.0914599895477295 127.99700927734374 92.10999417304993" version="1.1" id="svg5" inkscape:version="1.1.1 (3bf5ae0d25, 2021-09-20)" sodipodi:docname="LOGO-NO-TEXTk.svg" xmlns:inkscape="http://www.inkscape.org/namespaces/inkscape" xmlns:sodipodi="http://sodipodi.sourceforge.net/DTD/sodipodi-0.dtd" xmlns="http://www.w3.org/2000/svg" xmlns:svg="http://www.w3.org/2000/svg" style="">
  <sodipodi:namedview id="namedview7" pagecolor="#ffffff" bordercolor="#666666" borderopacity="1.0" inkscape:pageshadow="2" inkscape:pageopacity="0.0" inkscape:pagecheckerboard="0" inkscape:document-units="mm" showgrid="false" inkscape:zoom="1.0482005" inkscape:cx="384.94544" inkscape:cy="327.70448" inkscape:window-width="1920" inkscape:window-height="1017" inkscape:window-x="-8" inkscape:window-y="-8" inkscape:window-maximized="1" inkscape:current-layer="g911"/>
  <defs id="defs2"/>
  <g inkscape:label="Warstwa 1" inkscape:groupmode="layer" id="layer1">
    <g style="display:block" id="g911" transform="matrix(0.06614583,0,0,0.06614583,-3.6849105,-0.95075051)">
      <path fill="#1939fe" d="m 280.584,116.291 c 12.015,-1.207 34.112,-0.566 46.927,-0.542 l 83.158,0.093 277.119,-0.007 290.042,-0.055 90.78,-0.026 c 48.05,0 70.28,-3.543 113.1,23.755 27.91,18.01 48.82,45.025 59.26,76.558 3.05,9.486 5.38,22.174 7.57,32.163 3.32,-0.219 6.64,-0.355 9.96,-0.408 l 320.49,-0.025 87.73,-0.053 c 19.89,-0.008 49.38,-1.061 68.2,2.908 25.71,6.381 51.44,21.301 70.19,39.584 47.32,46.136 43.15,94.179 43.15,154.171 l -0.01,107.418 -0.02,386.686 c -0.22,42.684 -13.65,77.639 -43.92,108.169 -13.18,13.3 -45.6,33.65 -63.16,37.31 -31.51,6.57 -78.77,4.31 -111.72,4.31 l -165.17,-0.23 c 0.29,17.67 0.46,38.38 -0.17,55.99 26.76,-0.84 53.89,0.05 80.67,-0.41 6.47,-0.11 13.86,0.01 20.16,1.53 6.12,1.48 11.72,4.57 16.23,8.96 6.16,6 12.56,19.47 11.37,28.62 -3.31,25.37 7.92,66.66 -10.83,86.69 -12.05,12.88 -32.66,10.99 -48.19,10.83 l -479.54,0.08 c -15.61,-0.08 -23.65,0.61 -35.53,-11.43 -3.31,-3.36 -8.38,-10.53 -9.11,-15.15 -3.21,-20.28 -1.09,-44.93 -1.61,-65.44 0.03,-14.45 0.45,-22.98 11.07,-33.52 15.09,-14.98 35.04,-11.25 55.4,-11.16 l 61.84,0.41 c -0.25,-18.67 -0.24,-37.34 0.01,-56 -47.9,0.27 -95.8,0.27 -143.707,0 0.809,16.97 2.172,37.59 -11.303,49.82 -3.62,3.29 -10.314,8.46 -15.382,9.06 -17.308,2.06 -35.165,1.33 -52.608,1.33 l -91.589,-0.01 -327.24,0.04 c -17.888,0.03 -40.837,0.6 -58.816,-0.81 -4.123,-0.32 -13.55,-6.77 -16.779,-10.22 -10.931,-11.69 -11.419,-24.65 -11.003,-40.02 0.644,-19.63 -1.059,-40.55 1.62,-59.96 2.751,-11.4 15.937,-22.08 27.275,-24.38 10.931,-2.21 26.09,-1.35 37.43,-1.3 l 62.092,0.45 c -0.248,-18.668 -0.244,-37.339 0.012,-56.008 l -165.604,0.19 c -60.929,0.037 -109.971,9.316 -161.146,-29.939 -69.322,-53.176 -57.511,-126.892 -57.48,-203.092 l 0.033,-195.257 -0.039,-186.627 c -0.001,-22.407 0.893,-46.727 0.015,-68.954 -3.101,-78.519 48.54,-144.831 128.773,-156.092 z" id="path860"/>
      <path fill="#ddd2fe" d="m 296.721,152.413 c 3.546,-0.435 11.853,-0.449 15.75,-0.47 l 543.111,0.087 161.228,-0.056 c 20.46,-0.021 42.36,0.488 62.71,-0.029 82.25,-2.091 132.12,42.633 132.59,127.018 l -0.04,363.081 0.03,107.736 c 0,47.862 3.61,99.519 -32.79,136.862 -39.16,40.164 -102.09,33.413 -153.29,33.414 l -106.043,-0.042 -0.064,-95.995 196.057,-0.08 0.06,-575.975 -580.27,0.169 c 13.753,16.658 27.701,35.828 38.384,54.78 50.674,89.904 50.2,211.672 0.274,301.799 -11.64,21.013 -26.935,40.356 -41.547,59.298 -20.767,0.045 -63.025,1.277 -82.435,-1.412 4.83,-7.054 19.321,-21.227 25.89,-28.64 18.782,-21.193 29.055,-38.606 41.495,-63.318 17.686,-37.598 26.62,-78.715 26.13,-120.262 -1.788,-82.564 -34.34,-145.866 -92.702,-202.199 -17.527,-0.853 -40.554,-0.213 -58.424,-0.207 l -108.877,0.099 0.068,575.978 468.117,-0.061 c -0.02,0.836 -0.034,1.673 -0.041,2.509 l -0.115,77.024 c -0.047,55.985 -0.909,98.249 42.811,141.689 50.79,50.46 96.83,42.95 161.36,42.79 l -0.091,24.01 H 443.975 l -0.063,-63.99 128.061,-0.08 0.052,-127.976 -188.187,-0.002 c -29.543,0.009 -65.298,1.439 -94.256,-1.51 -21.985,-2.239 -44.838,-12.265 -62.176,-25.631 -21.727,-16.749 -37.194,-54.398 -38.579,-81.293 -1.681,-32.656 -0.802,-69.808 -0.802,-103.186 L 188.01,509.306 187.959,345.241 c -0.02,-29.706 -1.459,-62.126 1.658,-91.529 6.231,-58.779 48.974,-96.153 107.104,-101.299 z" id="path862"/>
      <path fill="#b9a5fe" d="m 897.431,284.384 c 21.335,-0.902 45.097,-0.367 66.696,-0.364 l 115.973,-0.014 c -0.75,30.987 -0.07,64.748 -0.07,95.959 l -196.1,0.052 0.069,576.054 831.991,-0.072 0.07,-576.082 -468.08,0.093 -0.04,-95.968 312.01,0.008 88.17,-0.046 c 47.78,-0.07 85.35,-3.452 125.23,28.003 27.7,22.972 38.55,63.359 38.6,98.085 0.17,121.666 0.12,243.336 0.11,365.003 l -0.01,111.119 c 0,37.051 2.81,63.878 -11.58,99.365 -32.38,79.861 -124.94,66.431 -195.58,66.401 l -176.96,0.04 0.07,128.05 128.11,-0.06 c -0.51,20.6 -0.07,43.2 -0.08,63.96 l -512.05,0.04 -0.04,-63.97 128.06,-0.04 0.06,-128.08 -188.381,0.01 c -29.236,0.01 -64.605,1.42 -93.259,-1.39 -22.354,-2.19 -45.768,-12.23 -63.323,-25.99 -21.524,-16.88 -36.851,-54.109 -38.221,-80.975 -1.699,-33.318 -0.825,-70.824 -0.826,-104.83 l -0.018,-199.944 -0.057,-162.364 c -0.026,-29.575 -1.418,-60.806 1.609,-90.124 6.162,-59.697 49.368,-96.979 107.847,-101.929 z" id="path864"/>
      <path fill="#ddd2fe" d="m 320.938,492.07 77.011,-0.116 c -0.912,24.637 -0.549,59.293 -0.018,84.055 l -77.064,-0.023 c 0.177,-27.971 0.2,-55.944 0.071,-83.916 z" id="path866"/>
      <path fill="#ddd2fe" d="m 320.938,336.072 77.011,-0.118 c -0.912,24.631 -0.55,59.299 -0.017,84.052 l -77.065,-0.018 c 0.177,-27.972 0.201,-55.944 0.071,-83.916 z" id="path868"/>
    </g>
  </g>
</svg>