<svg width="720" height="200" viewBox="0.793763279914856 0.7918143272399902 190.50318801403046 52.91755151748657" version="1.1" id="svg5" sodipodi:docname="LOGO-NAPIS-POZIOMO.svg" inkscape:version="1.1.1 (3bf5ae0d25, 2021-09-20)" xmlns:inkscape="http://www.inkscape.org/namespaces/inkscape" xmlns:sodipodi="http://sodipodi.sourceforge.net/DTD/sodipodi-0.dtd" xmlns="http://www.w3.org/2000/svg" xmlns:svg="http://www.w3.org/2000/svg" style="">
  <sodipodi:namedview id="namedview7" pagecolor="#ffffff" bordercolor="#666666" borderopacity="1.0" inkscape:pageshadow="2" inkscape:pageopacity="0.0" inkscape:pagecheckerboard="0" inkscape:document-units="mm" showgrid="false" inkscape:zoom="1.4823793" inkscape:cx="388.9018" inkscape:cy="101.52597" inkscape:window-width="1920" inkscape:window-height="1017" inkscape:window-x="-8" inkscape:window-y="-8" inkscape:window-maximized="1" inkscape:current-layer="g911"/>
  <defs id="defs2"/>
  <g inkscape:label="Warstwa 1" inkscape:groupmode="layer" id="layer1">
    <g style="display:block" id="g911" transform="matrix(0.06614583,0,0,0.06614583,-3.6849105,-0.95075051)">
      <path fill="#1939fe" d="m 219.89067,115.94746 c 6.38662,-0.64158 18.13236,-0.30086 24.94423,-0.2881 l 44.20295,0.0494 147.30365,-0.004 154.17293,-0.0292 48.25446,-0.0138 c 25.54116,0 37.3576,-1.8833 60.11873,12.62706 14.83567,9.57328 25.95046,23.93321 31.49988,40.6947 1.62124,5.04232 2.85976,11.78667 4.02386,17.09636 1.76476,-0.11641 3.52952,-0.1887 5.29428,-0.21687 l 170.35768,-0.0133 46.63321,-0.0282 c 10.57261,-0.004 26.24813,-0.56398 36.25197,1.54575 13.6662,3.39185 27.3431,11.32263 37.3098,21.04103 25.1531,24.52377 22.9365,50.06121 22.9365,81.95018 l -0.01,57.09845 -0.011,205.54441 c -0.117,22.68884 -7.2557,41.26931 -23.3459,57.49764 -7.0059,7.06967 -24.2388,17.88679 -33.57292,19.83228 -16.74926,3.4923 -41.87049,2.29099 -59.38519,2.29099 l -87.79674,-0.12225 c 0.15415,9.39255 0.24451,20.40103 -0.0904,29.76169 14.22438,-0.4465 28.64544,0.0266 42.88045,-0.21793 3.43915,-0.0585 7.36733,0.005 10.71612,0.81327 3.25311,0.7867 6.22981,2.4292 8.62712,4.76273 3.27437,3.18932 6.67632,10.34935 6.04377,15.21306 -1.75944,13.48552 4.2099,35.43338 -5.75673,46.0804 -6.40522,6.84642 -17.36055,5.84178 -25.61558,5.75673 l -254.90131,0.0425 c -8.29755,-0.0425 -12.57124,0.32424 -18.8861,-6.07566 -1.75945,-1.78602 -4.45442,-5.59727 -4.84246,-8.05304 -1.70629,-10.77992 -0.57939,-23.88272 -0.8558,-34.78488 0.016,-7.68096 0.2392,-12.21511 5.8843,-17.81769 8.02115,-7.96267 18.62565,-5.97998 29.44808,-5.93214 l 32.87129,0.21794 c -0.13289,-9.92411 -0.12757,-19.84822 0.005,-29.76701 -25.46142,0.14352 -50.92285,0.14352 -76.388,0 0.43003,9.02046 1.15454,19.9811 -6.00815,26.48201 -1.92423,1.74881 -5.48245,4.49694 -8.17636,4.81587 -9.20013,1.095 -18.69209,0.70697 -27.96398,0.70697 l -48.68448,-0.005 -173.94567,0.0213 c -9.50844,0.0159 -21.70706,0.31893 -31.26387,-0.43056 -2.1916,-0.1701 -7.20255,-3.59862 -8.91894,-5.43248 -5.81042,-6.21387 -6.06981,-13.1028 -5.84869,-21.27279 0.34232,-10.4344 -0.56291,-21.5545 0.86112,-31.87196 1.4623,-6.05971 8.47137,-11.73671 14.49813,-12.95928 5.81041,-1.17474 13.86824,-0.7176 19.89606,-0.69102 l 33.00524,0.2392 c -0.13183,-9.92305 -0.1297,-19.84769 0.006,-29.77127 l -88.02744,0.101 c -32.38704,0.0197 -58.4555,4.95195 -85.65777,-15.91419 -36.84837,-28.26591 -30.57019,-67.44993 -30.55371,-107.95433 l 0.0175,-103.7896 -0.0207,-99.20229 c -5.3e-4,-11.91053 0.47468,-24.83791 0.008,-36.65276 -1.64835,-41.73707 25.80162,-76.98547 68.44978,-82.9713 z" id="path860" style="stroke-width:0.531554"/>
      <path fill="#ddd2fe" d="m 228.46835,135.14825 c 1.88489,-0.23123 6.30051,-0.23867 8.37198,-0.24983 l 288.69271,0.0463 85.70136,-0.0298 c 10.87559,-0.0112 22.51662,0.2594 33.33374,-0.0154 43.7203,-1.11148 70.22889,22.66174 70.47872,67.5169 l -0.0213,192.99709 0.0159,57.26748 c 0,25.44123 1.91891,52.8997 -17.42965,72.74952 -20.81564,21.34932 -54.26633,17.7608 -81.48188,17.76134 l -56.36756,-0.0223 -0.034,-51.02651 104.21484,-0.0425 0.0319,-306.1617 -308.44473,0.0898 c 7.31046,8.85462 14.72458,19.04451 20.40316,29.11852 26.93596,47.78881 26.68401,112.51505 0.14565,160.4224 -6.18729,11.16954 -14.3174,21.45139 -22.08447,31.52008 -11.03877,0.0239 -33.50117,0.67879 -43.81863,-0.75055 2.5674,-3.74958 10.27015,-11.2833 13.76192,-15.2237 9.98365,-11.26522 15.4443,-20.52117 22.05683,-33.65693 9.40106,-19.98536 14.14996,-41.84126 13.8895,-63.92572 -0.95042,-43.88721 -18.25356,-77.53563 -49.2761,-107.47965 -9.31654,-0.45341 -21.55663,-0.11322 -31.0555,-0.11003 l -57.87398,0.0526 0.0361,306.1633 248.82937,-0.0324 c -0.0106,0.44438 -0.0181,0.88929 -0.0218,1.33367 l -0.0611,40.9424 c -0.025,29.75904 -0.48318,52.22463 22.75635,75.31533 26.99762,26.8222 51.47036,22.83024 85.77152,22.74519 l -0.0484,12.7626 H 306.74178 l -0.0335,-34.01412 68.07131,-0.0425 0.0276,-68.02613 -100.03151,-10e-4 c -15.7037,0.005 -34.7094,0.7649 -50.10214,-0.80265 -11.68621,-1.19015 -23.83381,-6.5195 -33.04989,-13.62425 -11.54907,-8.903 -19.77061,-28.91547 -20.50681,-43.21161 -0.89354,-17.35842 -0.42631,-37.1067 -0.42631,-54.84891 l -0.008,-105.79834 -0.0271,-87.20937 c -0.0106,-15.79034 -0.77554,-33.02331 0.88132,-48.65259 3.31211,-31.2442 26.03231,-51.11049 56.93153,-53.84587 z" id="path862" style="stroke-width:0.531554"/>
      <path fill="#b9a5fe" d="m 547.77804,205.29794 c 11.3407,-0.47946 23.97148,-0.19508 35.45251,-0.19349 l 61.64589,-0.007 c -0.39867,16.47126 -0.0372,34.41705 -0.0372,51.00737 l -104.2377,0.0276 0.0367,306.2037 442.24798,-0.0383 0.0372,-306.21857 -248.80971,0.0494 -0.0213,-51.01215 165.8501,0.004 46.8671,-0.0245 c 25.39764,-0.0372 45.36812,-1.83493 66.56649,14.8851 14.7241,12.21085 20.4914,33.67871 20.518,52.13745 0.09,64.67203 0.064,129.34618 0.059,194.01873 l -0.01,59.06573 c 0,19.6946 1.4937,33.9546 -6.1553,52.81784 -17.2118,42.45042 -66.4124,35.31166 -103.96136,35.29571 l -94.06376,0.0213 0.0372,68.06547 68.09735,-0.0319 c -0.27109,10.95001 -0.0372,22.96313 -0.0425,33.99818 l -272.18212,0.0213 -0.0213,-34.0035 68.07078,-0.0213 0.0319,-68.08141 -100.13464,0.005 c -15.54051,0.005 -34.34103,0.75481 -49.57218,-0.73886 -11.88235,-1.1641 -24.32815,-6.5009 -33.65958,-13.81508 -11.44116,-8.97263 -19.58829,-28.76185 -20.31651,-43.04257 -0.90311,-17.71031 -0.43854,-37.64677 -0.43907,-55.72279 l -0.01,-106.28099 -0.0303,-86.3052 c -0.0138,-15.7207 -0.75375,-32.32166 0.85527,-47.90576 3.27543,-31.73216 26.24174,-51.54955 57.32648,-54.18074 z" id="path864" style="stroke-width:0.531554"/>
      <path fill="#ddd2fe" d="m 241.34099,315.69422 40.93549,-0.0617 c -0.48477,13.09589 -0.29182,31.51742 -0.01,44.67975 l -40.96366,-0.0122 c 0.0941,-14.86809 0.10631,-29.73725 0.0377,-44.60587 z" id="path866" style="stroke-width:0.531554"/>
      <path fill="#ddd2fe" d="m 241.34099,232.77289 40.93549,-0.0627 c -0.48477,13.0927 -0.29235,31.52061 -0.009,44.67816 l -40.9642,-0.01 c 0.0941,-14.86862 0.10684,-29.73725 0.0377,-44.60587 z" id="path868" style="stroke-width:0.531554"/>
      <path fill="#1939fe" d="m 1654.5848,155.06238 c 26.161,-0.86 46.453,0.26 63.922,22.19 13.901,17.45 11.155,35.53 11.316,56.37 0.074,9.51 0.298,19.66 -0.823,29.02 60.281,-1.66 89.95,-6.8 131.533,42.32 18.54,-23.69 45.913,-41.56 76.894,-42.22 47.172,-0.82 94.425,-0.28 141.615,-0.41 8.58,-0.02 17.58,0.14 25.2,4.7 23.25,13.94 32.46,36.99 30.24,63.44 -0.28,3.33 -1.87,15.41 -1.18,17.85 8.77,-3 33.27,-2.14 43.4,-1.82 13.87,0.44 27.78,7.42 36.8,18.25 5.46,6.53 9.23,14.31 10.96,22.65 2.01,9.88 1.52,46.28 1.27,58.48 -0.37,18.32 1.13,47.43 -0.47,64.8 6.4,-0.19 12.67,-0.01 19.06,0.12 l -0.2,-1.81 c -1.66,-14.18 -0.44,-34.08 -0.55,-48.8 0.23,-18.67 -0.42,-40.59 -0.14,-58.98 0.66,-42.27 32.69,-59.34 71.21,-54.91 19.67,2.26 26.39,0.18 41.56,15.98 19.54,-21.97 49.34,-15.8 76.43,-15.14 61.32,1.48 123.21,-15.87 164.53,41.58 23.04,-30.61 47.99,-42 86,-42.31 l 58.55,-0.1 c 12.49,-0.04 38.72,-0.92 49.45,1.64 9.06,2.15 17.34,6.8 23.89,13.43 21.66,21.72 21.67,69.21 -0.3,90.59 -6.13,6.01 -13.67,10.37 -21.93,12.71 -12.57,3.44 -70.1,1.96 -86.68,1.88 0.14,10.74 0.38,34.41 -0.85,44.29 24.25,-0.52 49.66,-0.33 73.96,-0.23 15.23,0.08 27.98,6.62 37.87,17.53 20.59,22.74 18.8,70.78 -5.34,90.72 -5.65,4.66 -13.4,9.55 -20.79,10.68 -19.76,3.01 -40.45,0.65 -60.41,1.27 -18.95,0.05 -39.25,0.44 -57.93,-0.35 -23.75,-1 -46.33,-10.13 -62.16,-28.27 -16.49,24.76 -30.38,29.29 -59.34,28.81 -19.6,-0.32 -33.61,-1.05 -48.23,-15.91 -6.69,-6.72 -11.35,-15.18 -13.45,-24.42 -2.48,-11.04 -1.51,-35.4 -1.52,-47.88 l 0.08,-76.32 c -6.98,0.13 -14.33,-0.04 -21.34,-0.09 l -0.04,77.57 c 0.01,27.69 4.71,56.85 -19.47,75.61 -20.75,16.1 -50.71,11.75 -74.74,8.76 -2.06,2.78 -1.56,4.75 -1.89,8.65 -7.5,38.04 -35.9,70.89 -75.05,78.99 -28.22,5.83 -62.99,1.93 -92.6,2.8 -19.54,0.57 -49.4,2.58 -68.06,-3.98 -25.62,-12.53 -34.64,-42.07 -30.79,-68.83 2.86,-19.8 11.15,-29.03 26.41,-41.34 -5.85,-4.23 -12.45,-11.72 -17.13,-17.17 -5.53,8.05 -14.74,17.26 -22.58,23.06 -12.98,9.52 -27.98,15.93 -43.84,18.73 -21.28,3.74 -68.309,0.75 -92.918,1.53 -21.57,-1.65 -54.59,2.99 -74.995,-0.55 -35.226,-6.12 -49.01,-50.15 -41.463,-80.79 5.051,-20.5 13.575,-31.4 29.643,-41.43 l -0.803,-1.17 c -1.16,-0.36 -2.547,-0.79 -4.161,-1.28 -3.744,2.8 -9.804,8.78 -12.943,11.8 -21.451,21.49 -42.984,29.67 -73.284,29.47 -35.092,-0.23 -70.727,0.09 -105.865,0.02 -10.935,-0.02 -22.606,0.58 -33.324,-1.8 -7.8,-1.73 -13.947,-6.88 -19.478,-12.32 -5.642,7.34 -14.484,12.69 -23.571,13.32 -19.738,1.38 -41.446,0.67 -61.355,0.72 l -56.973,0.11 c -11.196,0 -29.157,0.43 -39.623,-1.62 -13.21,-2.65 -25.62,-8.35 -36.238,-16.64 -15.099,22.46 -35.987,18.52 -59.777,18.33 -16.823,-0.19 -33.646,-0.24 -50.47,-0.18 l -73.977,0.19 c -13.141,0.03 -26.64,0.29 -39.702,-0.55 -14.373,-0.93 -33.671,-20.21 -34.96,-34.33 -1.567,-17.15 -0.932,-35.78 -0.938,-53.08 l -0.023,-96.19 0.015,-91.53 c 0.01,-12.5 -0.6,-37.5 0.912,-49.15 1.079,-7.78 4.254,-15.12 9.183,-21.24 8.559,-10.83 23.238,-21.95 37.161,-22.25 23.655,-0.3 46.132,-4.02 65.718,12.01 25.5,20.87 20.057,50.62 19.968,80.43 v 97.52 c 0,12.76 -0.831,38.24 0.328,49.78 4.528,0.95 18.626,0.37 23.89,0.48 19.924,0.41 41.494,-1 61.234,0.83 0.087,-1.53 0.217,-3.07 0.391,-4.6 1.947,-17.76 12.086,-35.32 26.126,-46.43 l -1.994,-2.53 c -15.559,-19.51 -18.363,-42.25 -12.221,-66.5 4.375,-17.27 23.226,-36.26 41.728,-36.84 35.338,-1.12 71.705,-0.19 107.135,-0.43 35.19,-0.49 53.878,1.53 81.76,24.4 -0.883,-6.29 -1.57,-19.18 -1.058,-25.61 2.266,-28.51 -7.65,-63.97 13.779,-86.91 12.632,-13.52 22.82,-17.98 40.816,-19.17 z m 74.56,271.62 c 7.002,-0.04 14.745,-0.25 21.666,0.09 -0.254,-14.71 -0.26,-29.43 -0.019,-44.15 l -21.507,0.17 c 0.41,10.56 0.945,33.96 -0.14,43.89 z" id="path870"/>
      <path fill="#b9a5fe" d="m 1655.2478,192.74238 c 16.377,-0.8 34.581,-2.3 36.288,18.64 1.029,12.62 0.781,24.65 0.782,37.27 -0.065,21.66 -0.02,43.33 0.132,64.99 25.95,-20.93 31.989,-13.63 61.926,-15.05 105.704,-5.02 87.633,83.31 85.38,156.7 -0.533,17.38 -15.169,34.5 -29.289,44.33 -18.959,10.31 -37.749,11.09 -58.961,11.04 -12.867,-0.03 -25.813,0.89 -38.569,-1.07 -11.421,-1.76 -16.002,-9.88 -21.784,-18.7 -1.678,5.47 -3.505,13.91 -8.555,16.8 -7.624,4.36 -21.987,3.34 -30.396,1.52 -3.891,-0.84 -10.754,-4.3 -11.915,-7.94 -1.355,-4.25 -2.595,-13.66 -2.618,-18.15 -0.219,-43.54 -0.137,-87.15 -0.13,-130.69 0.01,-45.48 -0.26,-91.03 0.22,-136.48 0.036,-3.4 0.513,-9.75 1.887,-12.78 3.144,-6.93 8.924,-8.16 15.602,-10.43 z m 73.897,233.94 c 7.002,-0.04 14.745,-0.25 21.666,0.09 -0.254,-14.71 -0.26,-29.43 -0.019,-44.15 l -21.507,0.17 c 0.41,10.56 0.945,33.96 -0.14,43.89 z" id="path872"/>
      <path fill="#1939fe" d="m 1712.5828,346.80238 c 16.191,-1.11 48.18,-3.62 62.943,2.98 5.024,2.25 7.23,6.15 8.91,11.23 4.475,13.54 4.964,80.59 -1.692,92.16 -3.611,6.28 -10.443,7.8 -16.932,9.33 -16.154,0.89 -49.785,4.1 -63.862,-3 -3.481,-1.76 -5.76,-6.96 -6.96,-10.44 -4.068,-11.8 -5.213,-82.15 0.134,-92 3.629,-6.69 10.697,-8.48 17.459,-10.26 z m 16.562,79.88 c 7.002,-0.04 14.745,-0.25 21.666,0.09 -0.254,-14.71 -0.26,-29.43 -0.019,-44.15 l -21.507,0.17 c 0.41,10.56 0.945,33.96 -0.14,43.89 z" id="path874"/>
      <path fill="#ddd2fe" d="m 1956.3948,299.01238 c 16.77,-1.48 41.667,-0.05 59.227,-0.46 20.33,0.25 41.99,-0.33 62.19,0.16 23.34,0.57 24.65,42.78 7.48,52.41 -6.5,3.64 -24.51,2.55 -32.01,2.51 l -61.78,-0.28 c -11.702,-0.05 -23.745,-0.46 -35.381,0.6 -31.37,2.84 -23.496,41.79 -26.285,64.16 l -0.169,1.3 c 20.532,-0.82 155.215,-3.48 166.165,1.6 7.89,10.28 3.71,104.84 -0.35,119.23 -2.99,10.54 -8.3,20.29 -15.54,28.52 -17.62,19.76 -40.05,24.07 -64.96,25.59 -24.96,0.51 -50.225,0.07 -75.216,0.24 -15.73,0.11 -31.83,0.05 -47.554,-0.18 -4.474,-0.13 -9.305,-1.9 -12.112,-5.56 -9.023,-11.77 -9.857,-39.08 5.192,-46.53 7.401,-3.66 23.984,-2.68 32.852,-2.64 l 61.853,0.31 c 12.165,0.05 24.845,0.57 36.925,-0.82 32.43,-3.74 22.76,-41.91 26.1,-65.73 l 0.26,-1.76 c -19.89,3.86 -57.458,1.25 -79.372,1.88 -13.805,0.4 -80.231,1.3 -86.9,-2.99 -2.792,-3.78 -4.237,-9.34 -4.139,-14.07 1.492,-71.56 -15.146,-152.19 83.524,-157.49 z" id="path876"/>
      <path fill="#ddd2fe" d="m 2155.0618,382.85238 c 5.6,-0.38 11.97,-0.54 17.49,0.61 5.16,1.07 10.73,3.78 13.12,8.75 4.94,10.24 3.08,26.53 3.04,37.73 -0.06,17.53 -3.5,97.42 4.38,108.22 4.06,5.55 11.2,7.54 17.72,8.26 13.16,1.45 53.41,3.42 63.27,-5.58 3.74,-3.42 5.3,-9.37 6.03,-14.19 1.79,-11.82 0.7,-25.02 0.64,-37 -0.13,-26.98 -0.87,-54.11 -0.27,-81.07 0.14,-6.72 0.43,-15.37 5.87,-20.12 6.41,-5.6 16.61,-6.24 24.77,-5.88 7.47,0.33 16.21,1.61 21.13,7.89 2.62,3.33 2.8,13.11 3.02,17.33 1.85,34.57 0.29,70.06 0.28,104.72 0,33.88 1.71,68.8 -0.72,102.55 -1.62,22.58 -6.97,37.35 -24.25,52.43 -24.32,17.23 -47.25,14.89 -75.81,15.09 -24.45,-0.04 -48.24,0.27 -72.72,-0.16 -15.52,-0.27 -21.14,-9.91 -21.29,-24.8 -0.09,-9.74 4.24,-15.9 11.81,-21.63 21.95,-2.39 53.95,-1.08 76.45,-0.97 54.66,0.28 52.01,-4.02 51.71,-55.21 -18.85,15.53 -27.76,15.33 -51.66,14.88 -14.27,-0.27 -27.54,0.6 -41.84,-2.39 -8.24,-1.63 -16.12,-4.7 -23.29,-9.07 -30.53,-18.98 -30.98,-51.9 -30.34,-84.12 0.63,-31.72 -0.69,-63.77 0.15,-95.47 0.42,-15.52 7.58,-18.74 21.31,-20.8 z" id="path878"/>
      <path fill="#b9a5fe" d="m 1425.3278,298.89238 c 15.869,-1.11 32.375,-0.34 48.307,-0.35 19.78,-0.01 39.999,-0.88 59.685,0.89 6.972,0.63 13.795,1.84 20.449,4.04 16.521,5.46 29.355,15.89 37.116,31.59 3.021,6.12 5.132,12.22 5.965,19 1.834,14.93 3.456,137.08 -0.218,146.09 -1.683,4.12 -6.383,7.02 -10.414,8.4 -7.923,2.72 -25.084,3.7 -32.455,-0.49 -5.603,-3.19 -6.677,-9.88 -8.18,-15.6 -3.19,3.9 -11.156,13.39 -15.094,14.8 -17.479,6.27 -73.642,3.68 -89.025,-0.41 -34.541,-10.05 -46.335,-33.47 -46.519,-68.25 -0.268,-50.62 39.434,-64.08 83.72,-63.18 28.094,0.56 40.092,-5.02 65.332,12.61 0.054,-7.41 0.702,-15.7 -0.71,-22.99 -1.258,-6.49 -4.391,-12.13 -10.4,-15.23 -21.823,-11.28 -102.027,4.4 -119.237,-7.48 -5.29,-3.66 -6.869,-8.81 -7.792,-14.89 -1.188,-7.82 -0.606,-15.6 4.472,-22.04 4.3,-5.46 8.559,-5.74 14.998,-6.51 z" id="path880"/>
      <path fill="#1939fe" d="m 1475.1678,414.94238 c 6.661,-0.67 15.612,-0.51 22.663,-0.52 11.622,0.26 29.645,-1.09 39.494,5.97 10.31,7.4 8.961,28.99 1.063,37.78 -6.514,7.25 -10.628,7.12 -19.394,8.12 -15.947,0.4 -46.752,3.05 -60.851,-5.01 -10.752,-6.14 -12.246,-28.51 -4.167,-37.71 6.765,-7.7 11.562,-7.61 21.192,-8.63 z" id="path882"/>
      <path fill="#ddd2fe" d="m 2428.2118,402.16238 c 20.22,-26.35 25.51,-18.13 54.08,-19.64 45.19,-2.4 89.73,7.14 95.83,59.76 2.81,24.23 0.35,48.72 1.12,73.04 0.33,19.47 0.4,40.32 -0.19,59.87 -0.71,14.4 -9.68,18.41 -22.69,19.41 -38.45,2.94 -31.87,-22.71 -31.83,-50.68 l 0.13,-60.84 c 0.14,-15.24 4.51,-45.75 -14.05,-49.96 -18.97,-4.31 -49.88,-5.23 -68.88,0.62 -3.92,1.21 -8.03,5.86 -9.05,9.86 -6.52,34.94 -0.88,73.93 -2.54,109.48 -0.67,14.27 4.09,33.12 -11.2,39.18 -9.43,3.74 -40.83,3.87 -41.93,-9.3 -2.31,-27.71 -1.37,-56.67 -1.37,-84.49 l 0.03,-62.59 c 0.01,-12.01 -0.21,-23.96 0.48,-35.96 0.8,-13.8 11.01,-15.59 22.27,-17.01 20.41,-0.74 24.95,-1.71 29.79,19.25 z" id="path884"/>
      <path fill="#b9a5fe" d="m 1203.2898,214.97238 c 12.439,-0.81 20.324,0.63 29.561,9.51 3.034,14.34 2.127,33.66 2.136,48.8 l 0.011,64.58 -0.049,70.54 c -0.019,14.99 0.431,34.04 -1.283,48.65 23.731,-2.06 53.243,-1.02 77.471,-1.23 14.331,-0.12 41.406,-0.67 54.341,1.01 l 1.449,1.25 c 16.522,14.45 16.521,50.8 -8.925,52.43 -25.619,0.18 -163.995,2.58 -177.855,-2.19 -4.233,-9.83 -3.129,-36.47 -3.141,-47.9 l -0.044,-65.06 v -100.84 c 0.01,-18.5 -0.155,-36.96 0.34,-55.46 0.52,-19.46 7.852,-22.34 25.99,-24.09 z" id="path886"/>
      <path fill="#ddd2fe" d="m 2687.0018,383.01238 c 17.26,-0.71 83.6,-1.62 97.57,1.41 2.77,2.61 5.29,5.45 6.9,8.94 3.08,6.64 3.46,17.72 0.76,24.63 -2.14,5.48 -6.27,9.11 -11.83,10.95 -7.41,2.44 -16,1.7 -23.69,1.64 -17.69,-0.13 -61,-3.33 -74.61,2.8 -4.89,2.2 -8.73,5.91 -10.53,11 -3.48,9.83 -3.6,81.95 0.86,90.62 3.12,6.07 9.36,9.25 15.75,10.75 25.34,5.95 72.39,-4.17 95.92,3.29 0.32,0.1 0.63,0.21 0.95,0.32 15.71,14.47 11.08,46.83 -12.92,45.28 -58.23,-3.78 -150.03,20.55 -156.48,-64.52 -1.36,-15.61 0,-31.93 -0.69,-47.46 -2.46,-55.83 6.84,-95.77 72.04,-99.65 z" id="path888"/>
    </g>
  </g>
</svg>